<svg width="32" height="32" viewBox="0 0 32 32" fill="none" xmlns="http://www.w3.org/2000/svg">
<path d="M21.3333 24C21.3333 22.5855 20.7714 21.229 19.7712 20.2288C18.771 19.2286 17.4144 18.6667 16 18.6667C14.5855 18.6667 13.2289 19.2286 12.2287 20.2288C11.2285 21.229 10.6666 22.5855 10.6666 24" stroke="#333333" stroke-width="2" stroke-linecap="round" stroke-linejoin="round"/>
<path d="M16 18.6667C18.2091 18.6667 20 16.8758 20 14.6667C20 12.4575 18.2091 10.6667 16 10.6667C13.7909 10.6667 12 12.4575 12 14.6667C12 16.8758 13.7909 18.6667 16 18.6667Z" stroke="#333333" stroke-width="2" stroke-linecap="round" stroke-linejoin="round"/>
<path d="M25.3333 5.33331H6.66667C5.19391 5.33331 4 6.52722 4 7.99998V26.6666C4 28.1394 5.19391 29.3333 6.66667 29.3333H25.3333C26.8061 29.3333 28 28.1394 28 26.6666V7.99998C28 6.52722 26.8061 5.33331 25.3333 5.33331Z" stroke="#333333" stroke-width="2" stroke-linecap="round" stroke-linejoin="round"/>
<path d="M10.6666 2.66669V5.33335" stroke="#333333" stroke-width="2" stroke-linecap="round" stroke-linejoin="round"/>
<path d="M21.3334 2.66669V5.33335" stroke="#333333" stroke-width="2" stroke-linecap="round" stroke-linejoin="round"/>
</svg>
