<svg width="255" height="200" viewBox="0 0 255 200" fill="none" xmlns="http://www.w3.org/2000/svg">
<path d="M47.9479 180.867L27.3628 192.388L20.1397 179.482L22.8133 177.986L28.2981 187.786L34.5702 184.276L29.4623 175.149L32.1259 173.658L37.2338 182.785L43.536 179.258L37.9836 169.337L40.6573 167.841L47.9479 180.867Z" fill="#F27B2C"/>
<path d="M25.5917 156.834L35.7999 154.355L36.6125 157.702L19.4198 161.877L18.6397 158.664L21.438 157.985L21.3864 157.772C20.38 157.598 19.4983 157.156 18.7414 156.447C17.9826 155.73 17.4465 154.726 17.133 153.435C16.8485 152.264 16.8457 151.178 17.1243 150.178C17.3956 149.18 17.9536 148.321 18.7985 147.602C19.6433 146.884 20.7746 146.352 22.1924 146.008L33.1282 143.352L33.9408 146.699L23.408 149.257C22.1618 149.559 21.2669 150.12 20.7231 150.94C20.1718 151.761 20.0339 152.739 20.3093 153.873C20.4977 154.649 20.8332 155.299 21.3158 155.822C21.7965 156.337 22.4041 156.691 23.1385 156.884C23.8636 157.072 24.6813 157.055 25.5917 156.834Z" fill="#F27B2C"/>
<path d="M14.461 132.343L14.3667 128.9L33.2038 128.385C34.3859 128.352 35.3897 128.54 36.2151 128.947C37.0403 129.347 37.6755 129.96 38.1206 130.785C38.5655 131.602 38.8047 132.621 38.8381 133.842C38.8415 133.965 38.8446 134.08 38.8476 134.187C38.8507 134.302 38.8501 134.421 38.8458 134.544L35.8867 134.626C35.8837 134.518 35.8811 134.422 35.8788 134.338C35.8767 134.261 35.8743 134.173 35.8715 134.073C35.8493 133.259 35.6144 132.678 35.167 132.329C34.727 131.972 34.0964 131.805 33.2751 131.828L14.461 132.343ZM11.6854 130.714C11.7018 131.313 11.5164 131.832 11.129 132.273C10.7337 132.706 10.2559 132.931 9.69554 132.946C9.12751 132.962 8.63813 132.764 8.22741 132.353C7.8088 131.934 7.5913 131.425 7.5749 130.826C7.5585 130.228 7.74794 129.712 8.1432 129.278C8.53059 128.838 9.00829 128.609 9.57632 128.594C10.1367 128.578 10.6262 128.78 11.0448 129.199C11.4555 129.61 11.669 130.115 11.6854 130.714Z" fill="#F27B2C"/>
<path d="M33.9535 110.45C33.651 112.081 33.0132 113.434 32.0402 114.511C31.0672 115.588 29.8464 116.338 28.3779 116.761C26.9093 117.183 25.2765 117.228 23.4796 116.894C21.6751 116.56 20.1595 115.931 18.9327 115.008C17.7058 114.086 16.8315 112.947 16.3095 111.593C15.7876 110.239 15.6779 108.746 15.9805 107.115C16.283 105.484 16.9208 104.131 17.8938 103.054C18.8667 101.977 20.0913 101.228 21.5674 100.806C23.0436 100.385 24.6839 100.342 26.4884 100.677C28.2853 101.01 29.7934 101.638 31.0127 102.559C32.2319 103.48 33.1025 104.618 33.6245 105.972C34.1464 107.326 34.2561 108.819 33.9535 110.45ZM31.113 109.911C31.3091 108.854 31.1922 107.926 30.7624 107.128C30.3326 106.33 29.6841 105.678 28.8171 105.174C27.9515 104.662 26.9599 104.302 25.8425 104.095C24.7326 103.889 23.6819 103.87 22.6902 104.037C21.6923 104.196 20.8458 104.57 20.1507 105.159C19.4556 105.749 19.01 106.572 18.8139 107.629C18.6163 108.694 18.7356 109.63 19.1716 110.437C19.609 111.237 20.2643 111.893 21.1374 112.407C22.0045 112.911 22.9929 113.266 24.1028 113.472C25.2202 113.679 26.2741 113.703 27.2644 113.543C28.2561 113.376 29.0957 112.997 29.7833 112.406C30.4723 111.807 30.9155 110.976 31.113 109.911Z" fill="#F27B2C"/>
<path d="M45.3661 93.297C45.1429 93.7606 44.9017 94.1643 44.6424 94.5082C44.39 94.8554 44.1773 95.1025 44.0044 95.2493L41.8214 93.278C42.2467 92.7839 42.5556 92.3105 42.7481 91.8576C42.9405 91.4048 42.9626 90.934 42.8145 90.4451C42.6697 89.9492 42.3077 89.4 41.7285 88.7973L40.8548 87.9037L21.8981 85.9621L23.4969 82.641L37.8115 84.5594L37.8915 84.3933L27.464 74.4005L29.0678 71.069L43.9739 86.3372C44.6576 87.0413 45.1734 87.7669 45.5211 88.5138C45.8758 89.2641 46.0419 90.0344 46.0194 90.8247C45.9969 91.6149 45.7791 92.439 45.3661 93.297Z" fill="#F27B2C"/>
<path d="M57.2035 55.5912L55.3775 53.3646L53.0485 34.4493L54.803 33.0104L57.491 36.2879L56.3777 37.2009L58.0587 50.7487L58.1755 50.8912L68.979 42.0313L70.8927 44.3647L57.2035 55.5912ZM68.7733 52.0614L65.2965 47.822L64.4817 46.7921L53.8322 33.8065L56.4418 31.6664L71.4007 49.9067L68.7733 52.0614Z" fill="#F27B2C"/>
<path d="M90.2945 39.7964C88.6161 40.5001 86.9972 40.6657 85.4377 40.2929C83.8782 39.9202 82.4285 39.0297 81.0886 37.6212C79.7486 36.2128 78.5778 34.328 77.5761 31.9669C76.5774 29.6129 76.0387 27.4683 75.96 25.5331C75.8885 23.5949 76.2605 21.9356 77.0762 20.5552C77.899 19.1717 79.141 18.1276 80.8022 17.4228C82.4635 16.718 84.0753 16.5555 85.6378 16.9353C87.1973 17.308 88.6456 18.1951 89.9825 19.5964C91.3235 20.9877 92.4934 22.8604 93.4921 25.2144C94.4968 27.5825 95.04 29.7377 95.1216 31.68C95.2003 33.6153 94.8332 35.2766 94.0205 36.6641C93.2048 38.0445 91.9628 39.0886 90.2945 39.7964ZM89.0934 36.9653C90.5637 36.3414 91.408 35.1366 91.6263 33.3507C91.8516 31.5617 91.3884 29.31 90.2368 26.5955C89.472 24.7929 88.6348 23.3505 87.7252 22.2683C86.8197 21.176 85.8771 20.4582 84.8972 20.1148C83.9215 19.7614 82.9494 19.7901 81.9809 20.201C80.5176 20.8218 79.6748 22.0302 79.4525 23.8262C79.2301 25.6222 79.6898 27.8754 80.8314 30.5858C81.5992 32.3955 82.4358 33.8465 83.3413 34.9388C84.2509 36.021 85.1921 36.7353 86.1648 37.0816C87.1346 37.4209 88.1108 37.3821 89.0934 36.9653Z" fill="#F27B2C"/>
<path d="M120.077 27.5722L119.967 26.333C119.889 25.4458 120 24.6187 120.302 23.8518C120.611 23.0767 121.102 22.4357 121.774 21.929C122.453 21.414 123.301 21.1114 124.318 21.0212C125.359 20.929 126.25 21.0736 126.993 21.4548C127.736 21.8361 128.321 22.3818 128.746 23.0918C129.179 23.8013 129.435 24.5996 129.513 25.4869L129.623 26.726C129.702 27.6133 129.59 28.4442 129.289 29.2187C128.987 29.9855 128.5 30.6261 127.829 31.1405C127.164 31.6465 126.32 31.9449 125.295 32.0358C124.262 32.1273 123.371 31.9828 122.62 31.6022C121.868 31.214 121.277 30.669 120.844 29.9672C120.412 29.2578 120.156 28.4594 120.077 27.5722ZM122.641 26.0961L122.75 27.3352C122.809 27.993 123.018 28.5757 123.379 29.0834C123.741 29.591 124.311 29.8102 125.091 29.7411C125.864 29.6726 126.379 29.3571 126.638 28.7945C126.896 28.232 126.997 27.6218 126.938 26.964L126.828 25.7249C126.77 25.067 126.568 24.4836 126.222 23.9747C125.884 23.465 125.317 23.2454 124.522 23.3159C123.757 23.3837 123.238 23.6996 122.964 24.2635C122.69 24.8274 122.582 25.4383 122.641 26.0961ZM107.067 15.1728L106.958 13.9337C106.879 13.0464 106.99 12.2155 107.292 11.441C107.601 10.6658 108.091 10.0249 108.763 9.51821C109.443 9.01083 110.292 8.71206 111.309 8.62188C112.349 8.52967 113.241 8.6742 113.984 9.05546C114.727 9.43673 115.311 9.9824 115.736 10.6925C116.161 11.4026 116.413 12.2012 116.492 13.0885L116.602 14.3277C116.681 15.2149 116.569 16.0458 116.268 16.8203C115.973 17.5865 115.491 18.2268 114.819 18.7411C114.155 19.2471 113.31 19.5455 112.285 19.6364C111.245 19.7286 110.349 19.5844 109.599 19.2038C108.855 18.8149 108.267 18.2696 107.835 17.5678C107.402 16.8584 107.146 16.0601 107.067 15.1728ZM109.642 13.6957L109.752 14.9348C109.811 15.5926 110.016 16.1757 110.37 16.684C110.731 17.1916 111.302 17.4109 112.082 17.3417C112.847 17.2739 113.358 16.9587 113.617 16.3962C113.883 15.833 113.987 15.2224 113.929 14.5646L113.819 13.3255C113.76 12.6677 113.558 12.0843 113.213 11.5753C112.867 11.0663 112.3 10.8467 111.512 10.9166C110.747 10.9844 110.228 11.3002 109.954 11.8641C109.688 12.4274 109.584 13.0379 109.642 13.6957ZM109.74 32.9289L123.812 7.99928L126.554 7.75622L112.482 32.6858L109.74 32.9289Z" fill="#F27B2C"/>
<path d="M163.495 38.5511L156.465 35.5685L165.678 13.8523L172.931 16.9294C175.059 17.8322 176.702 19.0422 177.86 20.5595C179.021 22.0697 179.664 23.8067 179.79 25.7704C179.927 27.7301 179.516 29.8374 178.56 32.0924C177.6 34.3545 176.362 36.1231 174.845 37.3981C173.335 38.6761 171.617 39.4234 169.689 39.6402C167.765 39.8499 165.701 39.4868 163.495 38.5511ZM160.956 34.0956L164.529 35.6117C166.184 36.3135 167.69 36.5858 169.05 36.4285C170.413 36.2643 171.618 35.7038 172.666 34.7471C173.717 33.7834 174.607 32.4426 175.336 30.7248C176.059 29.0212 176.4 27.4601 176.36 26.0416C176.326 24.626 175.906 23.3843 175.1 22.3164C174.293 21.2486 173.098 20.3787 171.515 19.7069L167.74 18.1054L160.956 34.0956Z" fill="#F27B2C"/>
<path d="M183.088 49.2004L193.547 34.9303L196.324 36.9662L185.866 51.2363L183.088 49.2004ZM196.563 33.7566C196.08 33.4026 195.783 32.9374 195.672 32.3611C195.572 31.7832 195.688 31.2682 196.019 30.816C196.355 30.3577 196.811 30.0923 197.388 30.0199C197.976 29.9459 198.511 30.0859 198.994 30.4399C199.477 30.794 199.769 31.26 199.869 31.8379C199.98 32.4142 199.867 32.9315 199.531 33.3898C199.2 33.842 198.74 34.1051 198.153 34.1791C197.576 34.2515 197.046 34.1107 196.563 33.7566Z" fill="#F27B2C"/>
<path d="M212.983 58.8027L210.468 56.8732C210.674 56.5073 210.815 56.0977 210.889 55.6445C210.969 55.1969 210.933 54.7197 210.781 54.213C210.63 53.7062 210.313 53.1894 209.831 52.6626C209.173 51.9431 208.462 51.4904 207.698 51.3044C206.94 51.1132 206.309 51.2482 205.805 51.7096C205.369 52.1088 205.165 52.5917 205.195 53.1582C205.224 53.7248 205.483 54.4455 205.971 55.3205L207.393 57.8294C208.214 59.2843 208.605 60.5708 208.567 61.6887C208.528 62.8067 208.047 63.7881 207.124 64.6331C206.342 65.3485 205.438 65.7596 204.411 65.8663C203.395 65.9734 202.347 65.7829 201.265 65.2947C200.189 64.8122 199.168 64.0441 198.204 62.9904C196.866 61.5289 196.087 60.0513 195.865 58.5576C195.649 57.0588 196.023 55.6758 196.986 54.4086L199.608 56.5223C199.107 57.261 198.911 58.0187 199.018 58.7952C199.13 59.5665 199.536 60.3346 200.236 61.0994C200.998 61.9321 201.78 62.4396 202.582 62.6219C203.389 62.799 204.045 62.6569 204.549 62.1955C204.957 61.8223 205.16 61.3557 205.158 60.7957C205.161 60.2415 204.948 59.588 204.519 58.8352L202.982 56.1826C202.145 54.7107 201.762 53.4056 201.834 52.2674C201.912 51.1349 202.415 50.1435 203.344 49.2933C204.114 48.5883 204.986 48.1866 205.957 48.0884C206.929 47.9902 207.924 48.1728 208.941 48.6365C209.965 49.0949 210.925 49.8141 211.822 50.7942C213.112 52.2047 213.823 53.595 213.952 54.965C214.087 56.3298 213.764 57.609 212.983 58.8027Z" fill="#F27B2C"/>
<path d="M212.241 82.8951C211.436 81.3837 211.085 79.9002 211.189 78.4444C211.302 76.9917 211.81 75.6509 212.713 74.4218C213.616 73.1927 214.85 72.1611 216.415 71.3271C218.001 70.4823 219.56 70.035 221.09 69.9851C222.628 69.9317 224.028 70.2648 225.29 70.9845C226.552 71.7042 227.575 72.7994 228.359 74.2701C228.99 75.4561 229.333 76.6307 229.387 77.7939C229.448 78.9535 229.237 80.0273 228.754 81.0154C228.275 82.0102 227.539 82.8417 226.546 83.5097L224.97 80.5514C225.616 79.9989 226.048 79.2904 226.266 78.4259C226.487 77.5682 226.34 76.6548 225.824 75.6857C225.373 74.8385 224.754 74.2155 223.967 73.8167C223.191 73.4211 222.299 73.2655 221.291 73.35C220.29 73.4308 219.234 73.7673 218.122 74.3593C216.983 74.9659 216.093 75.6622 215.45 76.4483C214.807 77.2344 214.427 78.0636 214.309 78.9358C214.194 79.8147 214.366 80.6846 214.824 81.5453C215.131 82.1213 215.514 82.5872 215.973 82.9429C216.443 83.3018 216.963 83.534 217.532 83.6395C218.105 83.7518 218.707 83.7225 219.339 83.5517L220.914 86.5099C219.847 86.9395 218.77 87.0909 217.685 86.9644C216.6 86.8378 215.584 86.4347 214.639 85.7548C213.698 85.0818 212.899 84.1285 212.241 82.8951Z" fill="#F27B2C"/>
<path d="M220.832 105.914C220.464 104.297 220.512 102.802 220.979 101.427C221.445 100.053 222.268 98.8804 223.449 97.9101C224.63 96.9398 226.111 96.2515 227.893 95.8451C229.682 95.437 231.323 95.4133 232.815 95.7739C234.307 96.1346 235.561 96.8331 236.577 97.8694C237.593 98.9057 238.286 100.232 238.655 101.85C239.023 103.467 238.975 104.962 238.508 106.337C238.042 107.711 237.215 108.884 236.027 109.856C234.839 110.828 233.35 111.518 231.561 111.927C229.779 112.333 228.146 112.355 226.661 111.993C225.176 111.63 223.926 110.931 222.91 109.895C221.894 108.858 221.201 107.532 220.832 105.914ZM223.654 105.283C223.893 106.331 224.368 107.136 225.079 107.699C225.79 108.261 226.644 108.602 227.64 108.721C228.637 108.848 229.69 108.785 230.798 108.532C231.899 108.281 232.871 107.883 233.715 107.336C234.568 106.794 235.197 106.115 235.602 105.299C236.006 104.482 236.089 103.549 235.85 102.501C235.609 101.445 235.128 100.634 234.408 100.065C233.689 99.5047 232.828 99.1617 231.822 99.0366C230.826 98.9172 229.778 98.983 228.678 99.234C227.569 99.4867 226.593 99.8828 225.747 100.422C224.903 100.969 224.282 101.65 223.885 102.465C223.49 103.288 223.413 104.227 223.654 105.283Z" fill="#F27B2C"/>
<path d="M230.718 135.806L241.062 136.301L240.897 139.753L223.224 138.907L223.386 135.525L226.447 135.671L226.455 135.487C225.531 135.036 224.776 134.346 224.19 133.418C223.612 132.499 223.354 131.376 223.417 130.049C223.472 128.914 223.769 127.921 224.309 127.07C224.857 126.228 225.638 125.581 226.651 125.13C227.664 124.686 228.899 124.499 230.356 124.569L241.597 125.106L241.432 128.546L230.606 128.029C229.402 127.971 228.427 128.259 227.682 128.892C226.937 129.525 226.538 130.375 226.487 131.441C226.457 132.085 226.587 132.734 226.879 133.386C227.17 134.045 227.632 134.602 228.263 135.055C228.895 135.515 229.713 135.766 230.718 135.806Z" fill="#F27B2C"/>
<path d="M230.151 156.763L220.179 153.461L221.262 150.191L238.057 155.753L237.018 158.892L234.284 157.986L234.215 158.194C234.977 158.875 235.491 159.717 235.757 160.719C236.022 161.729 235.945 162.864 235.527 164.125C235.148 165.27 234.576 166.192 233.81 166.893C233.051 167.596 232.123 168.029 231.026 168.192C229.929 168.354 228.687 168.206 227.302 167.747L216.619 164.209L217.702 160.94L227.991 164.347C229.209 164.75 230.265 164.748 231.16 164.341C232.063 163.936 232.698 163.18 233.065 162.072C233.316 161.314 233.375 160.585 233.243 159.886C233.108 159.194 232.78 158.572 232.259 158.019C231.743 157.476 231.041 157.058 230.151 156.763Z" fill="#F27B2C"/>
<path d="M222.201 190.746L219.846 189.298L224.906 181.065L227.261 182.512L222.201 190.746ZM229.515 186.94L227.712 189.874L213.453 181.111C212.884 180.761 212.403 180.583 212.011 180.576C211.625 180.573 211.297 180.674 211.028 180.878C210.761 181.092 210.529 181.36 210.332 181.68C210.187 181.916 210.077 182.132 210.001 182.329C209.925 182.526 209.867 182.679 209.826 182.789L207.076 181.83C207.116 181.619 207.199 181.337 207.326 180.983C207.448 180.625 207.649 180.208 207.932 179.733C208.394 178.953 208.973 178.318 209.671 177.827C210.369 177.337 211.146 177.07 212.001 177.028C212.856 176.986 213.739 177.244 214.648 177.803L229.515 186.94Z" fill="#F27B2C"/>
</svg>
