<svg width="32" height="32" viewBox="0 0 32 32" fill="none" xmlns="http://www.w3.org/2000/svg">
<path d="M25.3333 18.6667C27.32 16.72 29.3333 14.3867 29.3333 11.3333C29.3333 9.38841 28.5607 7.52315 27.1854 6.14788C25.8101 4.77262 23.9449 4 22 4C19.6533 4 18 4.66667 16 6.66667C14 4.66667 12.3466 4 9.99996 4C8.05504 4 6.18978 4.77262 4.81451 6.14788C3.43924 7.52315 2.66663 9.38841 2.66663 11.3333C2.66663 14.4 4.66663 16.7333 6.66663 18.6667L16 28L25.3333 18.6667Z" stroke="#333333" stroke-width="2" stroke-linecap="round" stroke-linejoin="round"/>
<path d="M16.0001 6.66669L12.0534 10.6134C11.7825 10.8823 11.5675 11.2022 11.4207 11.5546C11.274 11.907 11.1985 12.285 11.1985 12.6667C11.1985 13.0484 11.274 13.4264 11.4207 13.7788C11.5675 14.1312 11.7825 14.4511 12.0534 14.72C13.1467 15.8134 14.8934 15.8534 16.0534 14.8134L18.8134 12.28C19.5052 11.6523 20.4059 11.3045 21.3401 11.3045C22.2742 11.3045 23.1749 11.6523 23.8667 12.28L27.8134 15.8267" stroke="#333333" stroke-width="2" stroke-linecap="round" stroke-linejoin="round"/>
<path d="M24 20L21.3334 17.3333" stroke="#333333" stroke-width="2" stroke-linecap="round" stroke-linejoin="round"/>
<path d="M20 24L17.3334 21.3333" stroke="#333333" stroke-width="2" stroke-linecap="round" stroke-linejoin="round"/>
</svg>
