<svg width="32" height="32" viewBox="0 0 32 32" fill="none" xmlns="http://www.w3.org/2000/svg">
<path d="M10.5333 26.6667C13.0781 27.9721 16.0054 28.3257 18.7878 27.6637C21.5702 27.0018 24.0247 25.3678 25.709 23.0563C27.3932 20.7447 28.1965 17.9076 27.9741 15.0562C27.7516 12.2048 26.5181 9.52664 24.4957 7.50427C22.4733 5.4819 19.7951 4.24835 16.9437 4.0259C14.0923 3.80345 11.2553 4.60674 8.94372 6.29101C6.63218 7.97527 4.99821 10.4298 4.33626 13.2122C3.6743 15.9946 4.02788 18.9219 5.33329 21.4667L2.66663 29.3333L10.5333 26.6667Z" stroke="#333333" stroke-width="2" stroke-linecap="round" stroke-linejoin="round"/>
<path d="M21.0666 12.2667C20.4436 11.6559 19.6058 11.3138 18.7333 11.3138C17.8608 11.3138 17.0231 11.6559 16.4 12.2667L16 12.8L15.5333 12.4C15.2276 12.0692 14.8561 11.806 14.4426 11.6274C14.0291 11.4488 13.5827 11.3588 13.1323 11.3631C12.6819 11.3674 12.2374 11.466 11.8274 11.6525C11.4173 11.839 11.0509 12.1093 10.7517 12.446C10.4524 12.7826 10.227 13.1782 10.0898 13.6072C9.95269 14.0363 9.9069 14.4893 9.95541 14.9371C10.0039 15.3849 10.1457 15.8176 10.3715 16.2074C10.5973 16.5971 10.9022 16.9352 11.2666 17.2L16.0666 21.8667L20.8666 17.2C22.4666 15.6 22.3333 13.6 21.1333 12.2667" stroke="#333333" stroke-width="2" stroke-linecap="round" stroke-linejoin="round"/>
</svg>
